<?xml version="1.0" standalone="no"?>
<!DOCTYPE svg PUBLIC "-//W3C//DTD SVG 20010904//EN"
 "http://www.w3.org/TR/2001/REC-SVG-20010904/DTD/svg10.dtd">
<svg version="1.0" xmlns="http://www.w3.org/2000/svg"
 width="32.000000pt" height="32.000000pt" viewBox="0 0 32.000000 32.000000"
 preserveAspectRatio="xMidYMid meet">

<g transform="translate(0.000000,32.000000) scale(0.100000,-0.100000)"
fill="#e5c584" stroke="none">
<path d="M184 248 c-29 -29 -55 -66 -58 -82 -7 -27 -6 -28 21 -22 15 4 53 32
83 62 46 45 53 57 44 72 -19 30 -38 24 -90 -30z m27 -31 c-27 -28 -54 -48 -58
-44 -9 10 88 108 100 100 5 -3 -14 -28 -42 -56z"/>
<path d="M32 268 c-16 -16 -16 -200 0 -216 16 -16 200 -16 216 0 7 7 12 41 12
82 0 86 -18 78 -22 -9 l-3 -60 -95 0 -95 0 0 95 0 95 60 3 c87 4 95 22 9 22
-41 0 -75 -5 -82 -12z"/>
</g>
</svg>
