<?xml version="1.0" standalone="no"?>
<!DOCTYPE svg PUBLIC "-//W3C//DTD SVG 20010904//EN"
 "http://www.w3.org/TR/2001/REC-SVG-20010904/DTD/svg10.dtd">
<svg version="1.0" xmlns="http://www.w3.org/2000/svg"
 width="100.000000pt" height="100.000000pt" viewBox="0 0 100.000000 100.000000"
 preserveAspectRatio="xMidYMid meet">

<g transform="translate(0.000000,100.000000) scale(0.100000,-0.100000)"
fill="#000000" stroke="none">
<path d="M100 900 c-19 -19 -20 -33 -20 -400 0 -367 1 -381 20 -400 19 -19 33
-20 400 -20 367 0 381 1 400 20 19 19 20 33 20 333 l0 312 -88 88 -87 87 -313
0 c-299 0 -313 -1 -332 -20z m140 -150 c0 -181 -17 -170 250 -170 265 0 250
-10 250 162 l0 122 70 -69 70 -70 -2 -300 -3 -300 -57 -3 -58 -3 0 161 c0 217
22 200 -260 200 -282 0 -260 17 -260 -200 l0 -161 -57 3 -58 3 -3 365 c-1 201
0 371 3 377 3 8 25 13 60 13 l55 0 0 -130z m458 3 l-3 -128 -205 0 -205 0 -3
128 -3 127 211 0 211 0 -3 -127z m20 -475 l3 -158 -221 0 -220 0 0 153 c0 85
3 157 7 161 4 3 102 5 217 4 l211 -3 3 -157z"/>
<path d="M160 180 c0 -13 7 -20 20 -20 13 0 20 7 20 20 0 13 -7 20 -20 20 -13
0 -20 -7 -20 -20z"/>
<path d="M800 180 c0 -13 7 -20 20 -20 13 0 20 7 20 20 0 13 -7 20 -20 20 -13
0 -20 -7 -20 -20z"/>
<path d="M564 827 c-3 -8 -4 -47 -2 -88 l3 -74 45 0 45 0 0 85 0 85 -43 3
c-29 2 -44 -1 -48 -11z m56 -77 c0 -27 -4 -50 -10 -50 -5 0 -10 23 -10 50 0
28 5 50 10 50 6 0 10 -22 10 -50z"/>
</g>
</svg>
