<?xml version="1.0" standalone="no"?>
<!DOCTYPE svg PUBLIC "-//W3C//DTD SVG 20010904//EN"
 "http://www.w3.org/TR/2001/REC-SVG-20010904/DTD/svg10.dtd">
<svg version="1.0" xmlns="http://www.w3.org/2000/svg"
 width="50.000000pt" height="50.000000pt" viewBox="0 0 50.000000 50.000000"
 preserveAspectRatio="xMidYMid meet">

<g transform="translate(0.000000,50.000000) scale(0.100000,-0.100000)"
fill="#000000" stroke="none">
<path d="M402 468 c-18 -18 46 -82 65 -67 18 15 16 44 -3 63 -18 19 -45 21
-62 4z"/>
<path d="M207 272 c-131 -131 -170 -176 -178 -206 -6 -21 -8 -40 -6 -43 3 -2
22 0 43 6 31 8 74 46 209 181 93 93 165 170 160 170 -5 0 -83 -73 -172 -162
l-163 -163 -22 23 -23 22 165 165 c90 90 162 167 159 169 -3 3 -80 -70 -172
-162z"/>
</g>
</svg>
